<?xml version="1.0" encoding="UTF-8"?>
<svg xmlns="http://www.w3.org/2000/svg" width="158" height="51" viewBox="0 0 158 51" fill="none">
  <path d="M0 3.86653L0.143768 46.5745L28.5523 30.1171L24.3686 27.4601L4.49274 39.1117L4.36335 0.476318L0 3.86653Z" fill="#8A2734"></path>
  <path d="M15.462 18.4437L35.3379 30.0953L2.18506 49.3767L8.24487 50.952L43.9136 30.2115L15.462 13.4564V18.4437Z" fill="#CF384A"></path>
  <path d="M8.2953 0.0479736L8.23779 33.1225L12.6083 30.7849L12.5364 7.57613L45.754 26.7414L43.9066 20.5925L8.2953 0.0479736Z" fill="#CF384A"></path>
  <path d="M56.5726 26.8502V33.1588H65.7163V35.6633H53.9561V15.7649H65.5797V18.2694H56.5726V24.382H64.8752V26.8575H56.5726V26.8502Z" fill="white"></path>
  <path d="M83.8166 21.0789C85.2614 21.0136 86.6632 21.5871 87.6552 22.6397C88.6615 23.7867 89.1791 25.2894 89.1072 26.814V35.6561H86.656V26.9011C86.7063 25.9791 86.4116 25.0717 85.8221 24.3602C85.2399 23.7286 84.406 23.3947 83.5578 23.4383C82.5874 23.3874 81.6457 23.794 81.0131 24.5345C80.3446 25.4709 80.0139 26.6107 80.1002 27.765V35.6706H77.6489V26.9083C77.6993 25.9864 77.4117 25.0862 76.8438 24.3675C76.2903 23.7432 75.4924 23.402 74.6586 23.4455C73.6666 23.4092 72.7177 23.823 72.0564 24.5708C71.3375 25.4709 70.9853 26.6107 71.0572 27.765V35.6706H68.606V21.4491H71.0572V23.3511C71.9414 21.8775 73.5444 21.0063 75.248 21.0789C76.9804 20.9845 78.605 21.9283 79.3885 23.4963C80.3086 21.921 82.0123 20.9845 83.8166 21.0789Z" fill="white"></path>
  <path d="M104.39 33.8703C101.514 36.8032 96.8276 36.8322 93.9235 33.9284C92.5002 32.5128 91.7094 30.5745 91.7238 28.5563C91.7238 24.4184 95.0449 21.0645 99.1422 21.0645C103.24 21.0645 106.561 24.4184 106.561 28.5563C106.597 30.5527 105.813 32.4765 104.39 33.8703ZM99.1279 33.6162C101.838 33.6598 104.066 31.4819 104.109 28.7451C104.109 28.6797 104.109 28.6217 104.109 28.5563C104.167 25.8195 102.018 23.5545 99.3148 23.4964C99.2501 23.4964 99.1926 23.4964 99.1279 23.4964C97.8052 23.4674 96.5329 23.9973 95.6127 24.9483C93.7006 26.9665 93.7006 30.1462 95.6127 32.1716C96.54 33.1226 97.8124 33.6453 99.1279 33.6162Z" fill="white"></path>
  <path d="M114.324 33.0136L118.745 21.4419H121.39L115.762 35.6561H112.886L107.258 21.4419H109.903L114.324 33.0136Z" fill="white"></path>
  <path d="M124.711 18.8575C124.265 18.8647 123.841 18.6905 123.532 18.3784C123.223 18.0735 123.051 17.6524 123.051 17.2096C123.043 16.7667 123.216 16.3457 123.532 16.0335C123.841 15.7068 124.265 15.5254 124.711 15.5399C125.15 15.5326 125.566 15.7141 125.868 16.0335C126.177 16.3457 126.35 16.774 126.35 17.2096C126.343 18.1243 125.617 18.8575 124.711 18.8575ZM125.926 35.6634H123.475V21.4491H125.926V35.6634Z" fill="white"></path>
  <path d="M141.316 23.8956V15.7649H143.768V35.6633H141.316V33.2169C140.181 35.0608 138.146 36.1352 135.997 36.0336C134.092 36.0699 132.259 35.2858 130.958 33.8702C129.585 32.4546 128.837 30.5381 128.873 28.5562C128.837 26.5816 129.585 24.6796 130.958 23.2713C132.252 21.8557 134.085 21.0571 135.997 21.0861C138.146 20.97 140.181 22.0517 141.316 23.8956ZM136.306 33.6379C137.643 33.6742 138.937 33.1443 139.879 32.186C140.82 31.2205 141.338 29.9065 141.316 28.549C141.352 27.1987 140.828 25.892 139.879 24.941C137.938 22.9591 134.775 22.9373 132.813 24.8974C131.842 25.8629 131.31 27.1842 131.325 28.5562C131.303 29.9138 131.813 31.2277 132.762 32.1933C133.697 33.1515 134.976 33.6742 136.306 33.6379Z" fill="white"></path>
  <path d="M150.358 8.844V2.85H152.464L153.652 7.845H153.922L155.11 2.85H157.216V8.844H156.109V3.849H155.839L154.651 8.844H152.923L151.708 3.849H151.465V8.844H150.358ZM146.416 8.844V3.849H144.418V2.85H149.548V3.849H147.523V8.844H146.416Z" fill="white"></path>
</svg>
