<?xml version="1.0" encoding="UTF-8"?>
<svg xmlns="http://www.w3.org/2000/svg" width="86" height="86" viewBox="0 0 86 86" fill="none">
  <g clip-path="url(#clip0_5055_2505)">
    <path d="M68.1131 41.8702C68.1131 56.071 56.9871 66.5845 42.6344 66.5845C40.057 66.5845 37.5835 66.2441 35.2588 65.6051C34.8073 65.4798 34.3273 65.5154 33.8982 65.704L28.8412 67.937C27.5184 68.5209 26.0253 67.5802 25.9815 66.1351L25.8429 61.6019C25.8255 61.0434 25.5748 60.5216 25.158 60.1496C20.1998 55.7163 17.1556 49.2987 17.1556 41.8702C17.1556 27.6693 28.2817 17.1558 42.6344 17.1558C56.9871 17.1558 68.1131 27.6693 68.1131 41.8702Z" fill="#0866FF"></path>
    <path d="M49.5524 48.9844L58.4231 35.2748C59.3148 33.8969 57.6628 32.2928 56.3114 33.2253L47.0514 39.6123C46.7395 39.8273 46.3278 39.8334 46.0098 39.6276L37.7904 34.3097C37.0943 33.8592 36.1659 34.0589 35.7164 34.754L26.8447 48.4636C25.953 49.8415 27.605 51.4456 28.9564 50.5131L38.2184 44.1251C38.5303 43.91 38.942 43.9039 39.26 44.1098L47.4774 49.4267C48.1735 49.8772 49.1019 49.6774 49.5524 48.9824V48.9844Z" fill="white"></path>
  </g>
  <defs>
    <clipPath id="clip0_5055_2505">
      <rect width="51.1613" height="51.1613" fill="white" transform="translate(17.0538 17.0537)"></rect>
    </clipPath>
  </defs>
</svg>
