<?xml version="1.0" encoding="UTF-8"?>
<svg xmlns="http://www.w3.org/2000/svg" width="86" height="86" viewBox="0 0 86 86" fill="none">
  <g clip-path="url(#clip0_5055_2394)">
    <path d="M68.1726 43.8681C68.1754 43.4668 67.9687 43.0932 67.6277 42.8833H67.6218L67.6003 42.8713L49.8723 32.3424C49.7958 32.2905 49.7164 32.243 49.6344 32.2003C48.9499 31.846 48.1368 31.846 47.4523 32.2003C47.3703 32.2431 47.2909 32.2905 47.2143 32.3424L29.4864 42.8713L29.465 42.8833C28.9232 43.2213 28.7571 43.9361 29.094 44.4797C29.1933 44.6399 29.33 44.7734 29.4923 44.8685L47.2203 55.3975C47.2971 55.4489 47.3766 55.4964 47.4583 55.5396C48.1428 55.8939 48.9559 55.8939 49.6404 55.5396C49.7221 55.4964 49.8015 55.449 49.8784 55.3975L67.6063 44.8685C67.9605 44.6613 68.1767 44.2795 68.1726 43.8681Z" fill="#0A2767"></path>
    <path d="M31.553 36.8378H43.1869V47.5375H31.553V36.8378ZM65.7931 25.9614V21.067C65.821 19.8432 64.8556 18.8282 63.636 18.7988H33.446C32.2264 18.8282 31.261 19.8432 31.2889 21.067V25.9614L49.1359 30.7365L65.7931 25.9614Z" fill="#0364B8"></path>
    <path d="M31.2888 25.9619H43.1868V36.7058H31.2888V25.9619Z" fill="#0078D4"></path>
    <path d="M55.0848 25.9619H43.1868V36.7058L55.0848 47.4497H65.793V36.7058L55.0848 25.9619Z" fill="#28A8EA"></path>
    <path d="M43.1868 36.7061H55.0848V47.4499H43.1868V36.7061Z" fill="#0078D4"></path>
    <path d="M43.1868 47.4497H55.0848V58.1936H43.1868V47.4497Z" fill="#0364B8"></path>
    <path d="M31.553 47.5383H43.1869V57.2651H31.553V47.5383Z" fill="#14447D"></path>
    <path d="M55.0848 47.4497H65.793V58.1936H55.0848V47.4497Z" fill="#0078D4"></path>
    <path d="M67.6277 44.8026L67.6051 44.8146L49.8771 54.8183C49.7998 54.8661 49.7212 54.9114 49.6391 54.952C49.338 55.0959 49.011 55.1771 48.6778 55.1908L47.7093 54.6225C47.6274 54.5813 47.548 54.5355 47.4713 54.4852L29.5054 44.1974H29.4971L28.9093 43.8679V64.1189C28.9185 65.47 30.0172 66.558 31.3638 66.5494H65.7561C65.7764 66.5494 65.7942 66.5399 65.8156 66.5399C66.1001 66.5216 66.3805 66.4629 66.6485 66.3656C66.7643 66.3164 66.8761 66.2581 66.9828 66.1913C67.0625 66.146 67.1993 66.0469 67.1993 66.0469C67.8088 65.5944 68.1696 64.8797 68.1726 64.119V43.8679C68.1722 44.2553 67.964 44.6124 67.6277 44.8026Z" fill="url(#paint0_linear_5055_2394)"></path>
    <path opacity="0.5" d="M67.2208 43.7882V45.0297L48.6837 57.8352L29.4923 44.206C29.4923 44.1994 29.4869 44.1941 29.4804 44.1941L27.7195 43.1316V42.2363L28.4453 42.2244L29.9801 43.1078L30.0158 43.1197L30.1466 43.2033C30.1466 43.2033 48.184 53.5293 48.2316 53.5532L48.9216 53.9591C48.9811 53.9352 49.0406 53.9113 49.112 53.8874C49.1477 53.8635 67.0185 43.7762 67.0185 43.7762L67.2208 43.7882Z" fill="#0A2767"></path>
    <path d="M67.6277 44.8026L67.6051 44.8158L49.8771 54.8195C49.7997 54.8672 49.7212 54.9126 49.6391 54.9532C48.9506 55.2907 48.1455 55.2907 47.457 54.9532C47.3755 54.9127 47.2961 54.868 47.219 54.8195L29.4911 44.8158L29.4697 44.8026C29.1274 44.6164 28.9129 44.2585 28.9093 43.8679V64.1189C28.9178 65.4698 30.0162 66.558 31.3626 66.5494C31.3626 66.5494 31.3626 66.5494 31.3627 66.5494H65.7193C67.0656 66.558 68.164 65.4699 68.1726 64.119C68.1726 64.119 68.1726 64.119 68.1726 64.1189V43.8679C68.1722 44.2553 67.964 44.6124 67.6277 44.8026Z" fill="#1490DF"></path>
    <path opacity="0.1" d="M50.1353 54.6721L49.87 54.8213C49.7931 54.8705 49.7136 54.9155 49.632 54.9562C49.3397 55.1002 49.0218 55.1846 48.6968 55.2045L55.4418 63.2075L67.2077 66.0523C67.5301 65.8079 67.7866 65.4866 67.9537 65.1175L50.1353 54.6721Z" fill="black"></path>
    <path opacity="0.05" d="M51.337 53.9939L49.87 54.8212C49.7931 54.8703 49.7136 54.9153 49.632 54.9561C49.3397 55.1 49.0218 55.1844 48.6968 55.2044L51.8569 63.9463L67.2113 66.0485C67.8162 65.5928 68.1723 64.8783 68.1726 64.1194V63.8579L51.337 53.9939Z" fill="black"></path>
    <path d="M31.396 66.5494H65.7157C66.2438 66.5521 66.7588 66.3847 67.1851 66.0719L47.7081 54.6249C47.6262 54.5837 47.5468 54.5379 47.4701 54.4877L29.5042 44.1998H29.4959L28.9093 43.8679V64.0497C28.908 65.4289 30.0213 66.5481 31.396 66.5494Z" fill="#28A8EA"></path>
    <path opacity="0.1" d="M45.5665 30.5378V56.0008C45.5644 56.8935 45.0233 57.696 44.1982 58.0302C43.9426 58.1404 43.6673 58.1972 43.3891 58.1973H28.9093V29.5434H31.2889V28.3496H43.3892C44.5911 28.3542 45.5639 29.3318 45.5665 30.5378Z" fill="black"></path>
    <path opacity="0.2" d="M44.3767 31.7312V57.1942C44.3797 57.4826 44.3187 57.768 44.1982 58.0298C43.8678 58.847 43.0783 59.3831 42.1993 59.3871H28.9093V29.5431H42.1993C42.5446 29.5396 42.8848 29.626 43.1869 29.7938C43.9162 30.1624 44.3764 30.9118 44.3767 31.7312Z" fill="black"></path>
    <path opacity="0.2" d="M44.3767 31.7312V54.8067C44.3709 56.0121 43.4008 56.9892 42.1994 56.9996H28.9093V29.5431H42.1993C42.5446 29.5396 42.8848 29.626 43.1869 29.7938C43.9162 30.1624 44.3764 30.9118 44.3767 31.7312Z" fill="black"></path>
    <path opacity="0.2" d="M43.1869 31.7311V54.8066C43.1856 56.0139 42.2128 56.9936 41.0096 56.9995H28.9093V29.543H41.0095C42.2127 29.5436 43.1875 30.5228 43.1868 31.73C43.1869 31.7303 43.1869 31.7307 43.1869 31.7311Z" fill="black"></path>
    <path d="M19.1922 29.543H41.0059C42.2104 29.543 43.1868 30.5227 43.1868 31.7311V53.6176C43.1868 54.8261 42.2104 55.8058 41.0059 55.8058H19.1922C17.9877 55.8058 17.0113 54.8261 17.0113 53.6176V31.7311C17.0113 30.5227 17.9877 29.543 19.1922 29.543Z" fill="url(#paint1_linear_5055_2394)"></path>
    <path d="M23.8276 38.7203C24.3652 37.5713 25.2328 36.6097 26.3191 35.9592C27.5221 35.2681 28.8919 34.9236 30.2776 34.9636C31.5618 34.9356 32.8291 35.2623 33.9409 35.9078C34.9863 36.5333 35.8282 37.4498 36.3646 38.546C36.9486 39.754 37.2397 41.0834 37.2141 42.4258C37.2424 43.8287 36.9429 45.2187 36.3396 46.4846C35.7905 47.62 34.9218 48.5691 33.841 49.2147C32.6863 49.88 31.372 50.2153 30.0408 50.184C28.7291 50.2158 27.4339 49.8855 26.2965 49.229C25.2421 48.6027 24.3896 47.6852 23.8407 46.586C23.2532 45.3955 22.9587 44.0811 22.9817 42.7528C22.9572 41.3619 23.2464 39.9834 23.8276 38.7203ZM26.4833 45.2025C26.7699 45.9289 27.2559 46.5589 27.8848 47.0194C28.5255 47.4686 29.2927 47.7004 30.0741 47.6807C30.9062 47.7137 31.7265 47.4741 32.4108 46.9979C33.0319 46.5388 33.5051 45.9071 33.772 45.181C34.0703 44.37 34.2175 43.511 34.2062 42.6466C34.2155 41.774 34.0771 40.9062 33.7969 40.08C33.5495 39.3341 33.0916 38.6764 32.4787 38.1867C31.8114 37.688 30.9934 37.4351 30.1621 37.4705C29.3638 37.4497 28.5794 37.6833 27.9217 38.1378C27.2821 38.6002 26.7869 39.2358 26.494 39.9702C25.8442 41.6536 25.8408 43.5191 26.4844 45.2049L26.4833 45.2025Z" fill="white"></path>
    <path d="M55.0848 25.9619H65.793V36.7058H55.0848V25.9619Z" fill="#50D9FF"></path>
  </g>
  <defs>
    <linearGradient id="paint0_linear_5055_2394" x1="48.541" y1="43.8679" x2="48.541" y2="66.5495" gradientUnits="userSpaceOnUse">
      <stop stop-color="#35B8F1"></stop>
      <stop offset="1" stop-color="#28A8EA"></stop>
    </linearGradient>
    <linearGradient id="paint1_linear_5055_2394" x1="21.5585" y1="27.8332" x2="38.725" y2="57.4661" gradientUnits="userSpaceOnUse">
      <stop stop-color="#1784D9"></stop>
      <stop offset="0.5" stop-color="#107AD5"></stop>
      <stop offset="1" stop-color="#0A63C9"></stop>
    </linearGradient>
    <clipPath id="clip0_5055_2394">
      <rect width="51.2466" height="47.6713" fill="white" transform="translate(17.0111 18.7988)"></rect>
    </clipPath>
  </defs>
</svg>
